<svg width="20" height="20" viewBox="0 0 20 20" fill="none" xmlns="http://www.w3.org/2000/svg">
<path d="M4.58785 13L8.1326 16.8401C8.44132 17.1746 9 16.9562 9 16.501V3.50101C9 3.04585 8.44132 2.82742 8.1326 3.16187L4.58971 7H2.49101C2.22788 7 2 7.21983 2 7.49101V12.509C2 12.7721 2.21983 13 2.49101 13H4.58785Z" fill="#2D2D2D"/>
<path d="M15.7733 8.17343C16.7472 9.1597 16.7472 10.7587 15.7733 11.745C14.7995 12.7313 13.2205 12.7313 12.2467 11.745C11.9545 11.4491 11.4808 11.4491 11.1886 11.745C10.8965 12.0409 10.8965 12.5206 11.1886 12.8165C12.7468 14.3945 15.2732 14.3945 16.8314 12.8165C18.3895 11.2385 18.3895 8.67998 16.8314 7.10196C15.5758 5.83044 13.6917 5.58347 12.192 6.36105L10.846 4L10 8.57728L14.3372 10.124L12.9418 7.67638C13.8675 7.23218 15.0075 7.39786 15.7733 8.17343Z" fill="#2D2D2D"/>
</svg>
