<svg width="20" height="20" viewBox="0 0 20 20" fill="none" xmlns="http://www.w3.org/2000/svg">
<path fill-rule="evenodd" clip-rule="evenodd" d="M6.49995 6.29995C8.39995 4.39995 11.6 4.39995 13.5 6.29995C14.2 6.99995 14.7 7.99995 14.9 8.99995L16.9 8.69995C16.7 7.19995 16 5.89995 15 4.89995C12.3 2.19995 7.89995 2.19995 5.09995 4.89995L2.89995 2.69995L2.19995 9.09995L8.59995 8.39995L6.49995 6.29995Z" fill="#2D2D2D"/>
<path fill-rule="evenodd" clip-rule="evenodd" d="M17.8 11L11.4 11.7L13.5 13.8C11.6 15.7 8.39998 15.7 6.49998 13.8C5.79998 13.1 5.29998 12.1 5.09998 11.1L3.09998 11.4C3.29998 12.9 3.99998 14.2 4.99998 15.2C6.39998 16.6 8.09998 17.2 9.89998 17.2C11.7 17.2 13.5 16.5 14.8 15.2L17 17.4L17.8 11Z" fill="#2D2D2D"/>
</svg>
